<svg width="272" height="56" viewBox="0 0 285 56" fill="none" xmlns="http://www.w3.org/2000/svg">
    <mask id="path-1-outside-1_29_11" maskUnits="userSpaceOnUse" x="-0.855835" y="0.717041" width="273" height="55" fill="black">
        <rect fill="white" x="-0.855835" y="0.717041" width="273" height="55" />
        <path
            d="M22.2439 54.0479C18.5177 54.0479 15.1524 53.3958 12.1482 52.0916C9.16719 50.7642 6.71021 48.8778 4.77723 46.4324C2.86754 43.9638 1.65652 41.0294 1.14417 37.6292L11.0652 36.162C11.7639 39.0499 13.2078 41.2739 15.397 42.8343C17.5861 44.3947 20.078 45.1748 22.8727 45.1748C24.4331 45.1748 25.9468 44.9303 27.414 44.4412C28.8812 43.9522 30.0806 43.2302 31.0122 42.2754C31.967 41.3205 32.4444 40.1444 32.4444 38.7471C32.4444 38.2347 32.3629 37.7457 32.1999 37.2799C32.0602 36.7908 31.8156 36.3367 31.4663 35.9175C31.117 35.4983 30.6163 35.1024 29.9642 34.7298C29.3354 34.3571 28.5319 34.0195 27.5538 33.7167L14.4887 29.874C13.5106 29.5946 12.3694 29.1987 11.0652 28.6863C9.78435 28.1739 8.53839 27.4403 7.32737 26.4855C6.11634 25.5307 5.10328 24.2731 4.28817 22.7127C3.49634 21.1291 3.10043 19.1379 3.10043 16.7391C3.10043 13.3622 3.95048 10.5559 5.65057 8.32017C7.35065 6.08443 9.62132 4.41928 12.4626 3.3247C15.3038 2.23012 18.4478 1.69448 21.8946 1.71777C25.3646 1.76435 28.462 2.35821 31.1868 3.49937C33.9116 4.64053 36.1939 6.30568 38.0338 8.49484C39.8736 10.6607 41.2011 13.3156 42.0162 16.4596L31.7458 18.2063C31.3731 16.5761 30.6861 15.202 29.6847 14.0842C28.6833 12.9663 27.4839 12.1163 26.0866 11.534C24.7125 10.9518 23.2686 10.6374 21.7548 10.5908C20.2643 10.5443 18.8554 10.7539 17.5279 11.2196C16.2237 11.6621 15.1524 12.3142 14.314 13.1759C13.4989 14.0376 13.0914 15.0623 13.0914 16.25C13.0914 17.3446 13.4291 18.2412 14.1044 18.9399C14.7798 19.6153 15.6299 20.1626 16.6546 20.5818C17.6793 21.001 18.7273 21.3503 19.7986 21.6298L28.5319 24.0052C29.8361 24.3546 31.28 24.8203 32.8636 25.4026C34.4473 25.9615 35.9611 26.7533 37.405 27.778C38.8722 28.7795 40.0715 30.1069 41.0031 31.7604C41.9579 33.414 42.4354 35.5099 42.4354 38.0484C42.4354 40.7499 41.8648 43.1138 40.7236 45.1399C39.6058 47.1427 38.092 48.8079 36.1823 50.1354C34.2726 51.4396 32.1067 52.4177 29.6847 53.0698C27.2859 53.7219 24.8057 54.0479 22.2439 54.0479Z"
        />
        <path d="M52.9083 52.9999V2.6959H62.4101V52.9999H52.9083Z" />
        <path
            d="M74.979 52.9999V2.6959H91.258C91.6539 2.6959 92.469 2.70755 93.7033 2.73084C94.9376 2.75413 96.1254 2.83564 97.2665 2.97537C101.319 3.46444 104.754 4.87341 107.572 7.2023C110.39 9.53119 112.532 12.4889 114 16.0754C115.467 19.6619 116.2 23.586 116.2 27.8479C116.2 32.1098 115.467 36.0339 114 39.6204C112.532 43.2069 110.39 46.1646 107.572 48.4935C104.754 50.8224 101.319 52.2314 97.2665 52.7204C96.1254 52.8602 94.9376 52.9417 93.7033 52.965C92.469 52.9883 91.6539 52.9999 91.258 52.9999H74.979ZM84.6206 44.057H91.258C91.8868 44.057 92.7368 44.0453 93.8081 44.022C94.8794 43.9755 95.8459 43.8707 96.7076 43.7076C98.8967 43.2651 100.678 42.2404 102.052 40.6335C103.45 39.0266 104.474 37.0936 105.127 34.8346C105.802 32.5755 106.14 30.2467 106.14 27.8479C106.14 25.3327 105.79 22.9456 105.092 20.6866C104.416 18.4275 103.38 16.5179 101.983 14.9575C100.585 13.3971 98.8269 12.4074 96.7076 11.9882C95.8459 11.8019 94.8794 11.6971 93.8081 11.6738C92.7368 11.6505 91.8868 11.6388 91.258 11.6388H84.6206V44.057Z"
        />
        <path d="M126.678 52.9999V2.6959H159.515V11.569H136.18V22.3284H155.323V31.2015H136.18V44.1268H159.515V52.9999H126.678Z" />
        <path
            d="M186.067 52.9999V2.6959H206.189C209.775 2.6959 212.675 3.41786 214.887 4.86177C217.099 6.28239 218.718 8.07564 219.743 10.2415C220.767 12.4074 221.28 14.5965 221.28 16.809C221.28 19.6269 220.639 21.9675 219.359 23.8306C218.101 25.6937 216.366 26.9396 214.153 27.5684V25.8218C217.297 26.4739 219.65 27.9294 221.21 30.1884C222.794 32.4475 223.585 34.9743 223.585 37.769C223.585 40.7732 223.027 43.4165 221.909 45.6988C220.814 47.9812 219.137 49.7744 216.878 51.0786C214.619 52.3595 211.778 52.9999 208.355 52.9999H186.067ZM195.709 44.057H207.376C208.657 44.057 209.798 43.7892 210.8 43.2535C211.801 42.6946 212.581 41.926 213.14 40.9479C213.723 39.9465 214.014 38.7704 214.014 37.4196C214.014 36.2319 213.769 35.1723 213.28 34.2407C212.791 33.3091 212.046 32.5755 211.044 32.0399C210.066 31.481 208.844 31.2015 207.376 31.2015H195.709V44.057ZM195.709 22.3284H206.049C207.12 22.3284 208.075 22.1421 208.913 21.7695C209.752 21.3969 210.416 20.8263 210.905 20.0578C211.394 19.2659 211.638 18.2529 211.638 17.0186C211.638 15.4815 211.161 14.189 210.206 13.141C209.251 12.093 207.865 11.569 206.049 11.569H195.709V22.3284Z"
        />
        <path d="M242.83 52.9999V32.529L225.643 2.6959H236.751L247.651 21.6298L258.55 2.6959H269.659L252.471 32.529V52.9999H242.83Z" />
    </mask>
    <path
        d="M22.2439 54.0479C18.5177 54.0479 15.1524 53.3958 12.1482 52.0916C9.16719 50.7642 6.71021 48.8778 4.77723 46.4324C2.86754 43.9638 1.65652 41.0294 1.14417 37.6292L11.0652 36.162C11.7639 39.0499 13.2078 41.2739 15.397 42.8343C17.5861 44.3947 20.078 45.1748 22.8727 45.1748C24.4331 45.1748 25.9468 44.9303 27.414 44.4412C28.8812 43.9522 30.0806 43.2302 31.0122 42.2754C31.967 41.3205 32.4444 40.1444 32.4444 38.7471C32.4444 38.2347 32.3629 37.7457 32.1999 37.2799C32.0602 36.7908 31.8156 36.3367 31.4663 35.9175C31.117 35.4983 30.6163 35.1024 29.9642 34.7298C29.3354 34.3571 28.5319 34.0195 27.5538 33.7167L14.4887 29.874C13.5106 29.5946 12.3694 29.1987 11.0652 28.6863C9.78435 28.1739 8.53839 27.4403 7.32737 26.4855C6.11634 25.5307 5.10328 24.2731 4.28817 22.7127C3.49634 21.1291 3.10043 19.1379 3.10043 16.7391C3.10043 13.3622 3.95048 10.5559 5.65057 8.32017C7.35065 6.08443 9.62132 4.41928 12.4626 3.3247C15.3038 2.23012 18.4478 1.69448 21.8946 1.71777C25.3646 1.76435 28.462 2.35821 31.1868 3.49937C33.9116 4.64053 36.1939 6.30568 38.0338 8.49484C39.8736 10.6607 41.2011 13.3156 42.0162 16.4596L31.7458 18.2063C31.3731 16.5761 30.6861 15.202 29.6847 14.0842C28.6833 12.9663 27.4839 12.1163 26.0866 11.534C24.7125 10.9518 23.2686 10.6374 21.7548 10.5908C20.2643 10.5443 18.8554 10.7539 17.5279 11.2196C16.2237 11.6621 15.1524 12.3142 14.314 13.1759C13.4989 14.0376 13.0914 15.0623 13.0914 16.25C13.0914 17.3446 13.4291 18.2412 14.1044 18.9399C14.7798 19.6153 15.6299 20.1626 16.6546 20.5818C17.6793 21.001 18.7273 21.3503 19.7986 21.6298L28.5319 24.0052C29.8361 24.3546 31.28 24.8203 32.8636 25.4026C34.4473 25.9615 35.9611 26.7533 37.405 27.778C38.8722 28.7795 40.0715 30.1069 41.0031 31.7604C41.9579 33.414 42.4354 35.5099 42.4354 38.0484C42.4354 40.7499 41.8648 43.1138 40.7236 45.1399C39.6058 47.1427 38.092 48.8079 36.1823 50.1354C34.2726 51.4396 32.1067 52.4177 29.6847 53.0698C27.2859 53.7219 24.8057 54.0479 22.2439 54.0479Z"
        stroke="#0C3DEA"
        stroke-width="2"
        mask="url(#path-1-outside-1_29_11)"
    />
    <path d="M52.9083 52.9999V2.6959H62.4101V52.9999H52.9083Z" stroke="#0C3DEA" stroke-width="2" mask="url(#path-1-outside-1_29_11)" />
    <path
        d="M74.979 52.9999V2.6959H91.258C91.6539 2.6959 92.469 2.70755 93.7033 2.73084C94.9376 2.75413 96.1254 2.83564 97.2665 2.97537C101.319 3.46444 104.754 4.87341 107.572 7.2023C110.39 9.53119 112.532 12.4889 114 16.0754C115.467 19.6619 116.2 23.586 116.2 27.8479C116.2 32.1098 115.467 36.0339 114 39.6204C112.532 43.2069 110.39 46.1646 107.572 48.4935C104.754 50.8224 101.319 52.2314 97.2665 52.7204C96.1254 52.8602 94.9376 52.9417 93.7033 52.965C92.469 52.9883 91.6539 52.9999 91.258 52.9999H74.979ZM84.6206 44.057H91.258C91.8868 44.057 92.7368 44.0453 93.8081 44.022C94.8794 43.9755 95.8459 43.8707 96.7076 43.7076C98.8967 43.2651 100.678 42.2404 102.052 40.6335C103.45 39.0266 104.474 37.0936 105.127 34.8346C105.802 32.5755 106.14 30.2467 106.14 27.8479C106.14 25.3327 105.79 22.9456 105.092 20.6866C104.416 18.4275 103.38 16.5179 101.983 14.9575C100.585 13.3971 98.8269 12.4074 96.7076 11.9882C95.8459 11.8019 94.8794 11.6971 93.8081 11.6738C92.7368 11.6505 91.8868 11.6388 91.258 11.6388H84.6206V44.057Z"
        stroke="#0C3DEA"
        stroke-width="2"
        mask="url(#path-1-outside-1_29_11)"
    />
    <path d="M126.678 52.9999V2.6959H159.515V11.569H136.18V22.3284H155.323V31.2015H136.18V44.1268H159.515V52.9999H126.678Z" stroke="#0C3DEA" stroke-width="2" mask="url(#path-1-outside-1_29_11)" />
    <path
        d="M186.067 52.9999V2.6959H206.189C209.775 2.6959 212.675 3.41786 214.887 4.86177C217.099 6.28239 218.718 8.07564 219.743 10.2415C220.767 12.4074 221.28 14.5965 221.28 16.809C221.28 19.6269 220.639 21.9675 219.359 23.8306C218.101 25.6937 216.366 26.9396 214.153 27.5684V25.8218C217.297 26.4739 219.65 27.9294 221.21 30.1884C222.794 32.4475 223.585 34.9743 223.585 37.769C223.585 40.7732 223.027 43.4165 221.909 45.6988C220.814 47.9812 219.137 49.7744 216.878 51.0786C214.619 52.3595 211.778 52.9999 208.355 52.9999H186.067ZM195.709 44.057H207.376C208.657 44.057 209.798 43.7892 210.8 43.2535C211.801 42.6946 212.581 41.926 213.14 40.9479C213.723 39.9465 214.014 38.7704 214.014 37.4196C214.014 36.2319 213.769 35.1723 213.28 34.2407C212.791 33.3091 212.046 32.5755 211.044 32.0399C210.066 31.481 208.844 31.2015 207.376 31.2015H195.709V44.057ZM195.709 22.3284H206.049C207.12 22.3284 208.075 22.1421 208.913 21.7695C209.752 21.3969 210.416 20.8263 210.905 20.0578C211.394 19.2659 211.638 18.2529 211.638 17.0186C211.638 15.4815 211.161 14.189 210.206 13.141C209.251 12.093 207.865 11.569 206.049 11.569H195.709V22.3284Z"
        stroke="#0C3DEA"
        stroke-width="2"
        mask="url(#path-1-outside-1_29_11)"
    />
    <path d="M242.83 52.9999V32.529L225.643 2.6959H236.751L247.651 21.6298L258.55 2.6959H269.659L252.471 32.529V52.9999H242.83Z" stroke="#0C3DEA" stroke-width="2" mask="url(#path-1-outside-1_29_11)" />
</svg>
